<?xml version="1.0" standalone="no"?>
<!DOCTYPE svg PUBLIC "-//W3C//DTD SVG 20010904//EN"
 "http://www.w3.org/TR/2001/REC-SVG-20010904/DTD/svg10.dtd">
<svg version="1.0" xmlns="http://www.w3.org/2000/svg"
 width="225.000000pt" height="225.000000pt" viewBox="0 0 225.000000 225.000000"
 preserveAspectRatio="xMidYMid meet">

<g transform="translate(0.000000,225.000000) scale(0.100000,-0.100000)"
fill="#000000" stroke="none">
<path d="M1035 2245 c-5 -3 -44 -9 -85 -14 -89 -11 -144 -24 -185 -41 -16 -7
-39 -16 -50 -19 -100 -35 -283 -152 -370 -237 -36 -34 -129 -152 -167 -210
-88 -136 -142 -294 -163 -477 -8 -70 -12 -133 -10 -140 2 -7 6 -52 9 -100 3
-49 9 -103 15 -120 39 -133 58 -188 78 -227 13 -25 23 -50 23 -57 0 -6 4 -13
8 -15 5 -2 24 -30 42 -63 32 -56 149 -201 176 -217 6 -4 27 -22 45 -39 40 -37
144 -109 158 -109 5 0 11 -4 13 -9 4 -13 209 -98 254 -107 22 -3 46 -10 54
-14 48 -25 297 -30 425 -10 138 22 356 112 446 184 14 12 36 28 49 36 54 36
181 172 231 248 29 45 57 82 61 82 5 0 8 9 8 19 0 11 6 26 13 33 14 16 37 72
44 111 3 15 9 27 14 27 5 0 9 12 9 26 0 14 5 34 11 45 30 57 54 401 30 447 -5
9 -14 44 -20 77 -7 33 -14 67 -16 75 -3 8 -8 31 -13 50 -5 19 -19 54 -30 77
-12 23 -22 49 -22 58 0 18 -17 50 -47 88 -13 16 -23 35 -23 42 0 8 -8 20 -18
27 -9 7 -26 27 -36 43 -55 86 -264 261 -366 307 -19 9 -57 26 -85 38 -27 12
-58 26 -67 30 -53 29 -407 72 -443 55z m-27 -123 c3 -27 6 -31 21 -23 29 16
42 -3 50 -68 8 -67 7 -71 -22 -71 -13 0 -17 5 -13 15 8 22 -5 105 -17 105 -5
0 -8 -24 -5 -60 4 -51 2 -60 -12 -60 -13 0 -19 18 -29 83 -7 45 -14 90 -17
100 -5 15 -1 18 18 15 18 -2 24 -10 26 -36z m393 -7 c0 -20 -46 -185 -51 -185
-3 0 -11 4 -17 8 -10 6 -8 24 7 80 11 39 20 83 20 97 0 20 3 23 21 17 11 -5
20 -12 20 -17z m-576 -35 c7 -24 7 -24 -12 -7 -22 19 -58 23 -69 6 -9 -16 15
-34 62 -47 53 -15 76 -58 51 -96 -21 -31 -74 -40 -88 -15 -17 33 -9 43 15 19
30 -27 59 -21 54 12 -2 15 -14 24 -40 32 -49 14 -78 40 -78 70 0 27 17 44 57
55 32 9 38 6 48 -29z m357 13 c37 -33 13 -133 -32 -133 -46 0 -67 93 -30 130
24 24 38 25 62 3z m118 -13 c26 -26 26 -70 -1 -104 -43 -55 -84 -23 -80 62 1
23 33 62 51 62 6 0 19 -9 30 -20z m-366 4 c20 -8 21 -44 1 -44 -8 0 -15 7 -15
15 0 8 -5 15 -11 15 -16 0 -4 -69 15 -88 12 -13 18 -13 30 -2 18 14 20 7 6
-21 -23 -43 -76 -9 -87 55 -4 27 -1 42 12 56 20 22 25 23 49 14z m664 -36 c22
-22 14 -49 -18 -61 -23 -9 -30 -17 -30 -39 0 -32 19 -38 27 -7 4 12 11 18 20
15 8 -3 17 -6 19 -6 11 0 2 -20 -8 -20 -7 0 -24 -9 -38 -20 -23 -19 -24 -21
-8 -34 21 -16 13 -26 -19 -26 -14 0 -23 6 -23 15 0 10 -10 15 -30 15 -66 0
-74 86 -11 108 17 6 31 16 31 23 0 37 62 63 88 37z m-934 -91 c22 -39 44 -75
50 -79 7 -5 4 -12 -9 -22 -14 -11 -21 -11 -24 -3 -8 25 -75 133 -90 145 -14
11 -14 14 -1 22 27 17 35 11 74 -63z m-34 -74 c33 -49 37 -63 15 -63 -7 0 -18
-8 -24 -17 -8 -14 -14 -16 -28 -7 -13 9 -18 24 -18 59 0 30 -5 50 -12 52 -16
6 -17 -9 -1 -25 14 -14 -4 -38 -21 -28 -18 12 -12 54 10 70 29 20 44 12 79
-41z m-160 12 c0 -19 -20 -29 -32 -17 -15 15 -2 43 17 36 8 -3 15 -12 15 -19z
m1324 15 c14 -5 32 -23 41 -40 9 -17 20 -28 25 -25 18 11 10 -1 -15 -25 l-25
-24 6 31 c6 31 -14 63 -41 63 -22 0 -81 -56 -95 -90 -15 -37 -1 -60 38 -60 19
0 23 -3 15 -11 -20 -20 -62 -1 -80 36 -14 30 -15 38 -2 72 14 36 67 83 95 83
7 0 24 -4 38 -10z m-1256 -90 c45 -47 47 -50 30 -65 -20 -16 -32 -20 -24 -7 3
5 -15 28 -39 52 -34 34 -42 47 -33 57 6 7 12 13 14 13 2 0 25 -22 52 -50z
m745 10 c169 -43 298 -126 403 -261 24 -31 40 -59 37 -63 -9 -9 -1213 -7
-1213 2 0 11 29 52 69 97 176 199 454 288 704 225z m-817 -12 c4 -6 0 -16 -9
-23 -16 -11 -15 -14 4 -39 12 -15 30 -31 41 -35 16 -6 17 -9 4 -26 -14 -19
-16 -19 -58 23 -24 23 -50 42 -57 42 -11 0 -9 5 4 20 10 11 22 17 26 14 5 -3
9 4 9 15 0 22 24 29 36 9z m1401 -70 c25 -32 23 -50 -8 -79 -56 -53 -125 -31
-99 31 21 52 83 79 107 48z m-1452 -38 c36 -22 53 -64 34 -86 -25 -30 -95 -9
-120 37 -8 16 -7 26 6 45 19 29 38 30 80 4z m1551 -45 c-14 -11 -52 -37 -85
-57 -58 -36 -61 -37 -71 -18 -8 15 -8 20 1 20 14 0 142 90 148 104 2 5 10 1
18 -10 12 -17 11 -21 -11 -39z m48 -54 c-5 -4 -44 -27 -86 -50 -75 -41 -77
-41 -88 -21 -8 15 -8 20 2 20 16 0 152 81 157 94 2 6 9 0 14 -12 6 -14 7 -26
1 -31z m-1664 -6 c22 -14 44 -25 50 -25 5 0 10 -3 10 -6 0 -5 -33 -65 -46 -82
-1 -2 -25 8 -52 22 -29 15 -53 22 -57 16 -8 -12 33 -38 73 -46 36 -7 36 -8 22
-33 -9 -18 -12 -17 -57 5 -26 13 -56 24 -67 24 -17 0 -17 1 -2 25 9 13 16 31
16 40 0 9 7 18 15 21 8 4 15 16 15 28 0 44 23 47 80 11z m1655 -100 c0 -16 -8
-33 -18 -39 -15 -9 -21 -6 -38 14 -19 25 -19 25 -34 5 -14 -18 -14 -21 2 -32
16 -12 15 -13 -4 -13 -11 0 -27 7 -34 16 -31 37 53 104 106 84 13 -5 20 -16
20 -35z m-915 -30 c0 -3 -111 -173 -247 -378 -137 -204 -249 -375 -251 -379
-2 -5 224 -8 503 -8 279 0 505 3 503 8 -1 4 -42 66 -89 137 -48 72 -159 240
-248 375 l-162 245 322 3 c369 3 331 14 373 -108 40 -113 53 -254 34 -360 -19
-101 -46 -176 -90 -250 l-33 -55 -590 0 -590 0 -48 95 c-56 112 -77 199 -77
331 0 108 23 217 65 298 l25 51 300 0 c165 0 300 -2 300 -5z m-827 -31 c3 -3
2 -17 -3 -29 -6 -16 -5 -25 3 -28 19 -7 47 12 41 28 -9 22 4 18 16 -5 28 -53
-49 -82 -104 -39 -24 19 -35 57 -19 72 8 9 58 9 66 1z m1775 -6 c13 -17 21
-78 10 -84 -4 -3 -8 -1 -8 5 0 7 -9 6 -26 -1 -24 -11 -29 -9 -50 15 -29 34
-38 34 -31 0 3 -15 3 -33 0 -40 -8 -20 -61 -16 -73 6 -12 23 -13 61 -2 62 4 0
16 3 27 6 11 2 30 6 41 7 12 1 29 10 39 19 19 20 58 22 73 5z m-1830 -108 c60
-13 84 -15 93 -6 9 8 10 7 5 -7 -3 -10 -6 -28 -6 -39 0 -15 -3 -18 -12 -10
-13 9 -139 35 -145 29 -1 -2 29 -19 67 -37 39 -19 70 -37 70 -40 0 -4 -35 -15
-77 -25 -84 -21 -71 -30 34 -23 46 3 53 1 53 -15 0 -13 -5 -17 -17 -13 -45 12
-173 18 -173 7 0 -6 -4 -11 -8 -11 -16 0 0 69 17 74 9 3 36 10 61 16 l45 12
-58 30 c-51 25 -58 32 -53 51 3 12 6 29 6 37 0 12 2 13 9 1 5 -8 45 -22 89
-31z m1856 -16 c23 -22 20 -41 -9 -60 -28 -18 -45 -12 -45 17 0 20 -8 23 -34
13 -19 -7 -21 -30 -3 -38 6 -3 3 -5 -7 -3 -10 1 -24 10 -30 20 -9 15 -6 23 17
43 33 28 87 32 111 8z m-945 -51 c9 -30 7 -40 -6 -55 -30 -34 -53 9 -37 70 10
34 32 26 43 -15z m869 -60 c-4 -25 -60 -29 -79 -7 -13 16 -12 16 8 6 17 -9 22
-9 27 3 8 22 48 20 44 -2z m-954 -73 c13 0 39 -11 58 -24 l35 -23 38 19 c38
20 112 27 134 14 6 -4 17 -19 25 -34 12 -23 11 -39 -1 -109 l-15 -82 -217 0
c-119 0 -222 4 -229 8 -8 5 -1 30 23 86 20 44 40 94 46 112 10 31 36 45 67 37
8 -2 24 -4 36 -4z m1098 -31 c16 10 18 7 18 -21 0 -44 -17 -100 -32 -110 -23
-14 -57 -8 -71 12 -13 19 -16 19 -57 5 -55 -19 -59 -19 -53 5 3 11 23 26 49
36 55 21 57 37 4 32 -37 -3 -40 -2 -40 22 l0 26 82 -9 c58 -7 87 -6 100 2z
m-1914 -62 c4 -31 10 -33 37 -13 16 12 17 16 6 30 -16 18 -1 22 17 4 18 -18
14 -56 -7 -68 -27 -14 -94 -13 -109 2 -19 19 -14 45 10 62 29 21 42 16 46 -17z
m83 -77 c2 -14 5 -22 13 -43 11 -25 -7 -42 -59 -57 -25 -7 -48 -17 -52 -22 -3
-6 -9 -5 -14 3 -16 25 -9 37 24 44 51 12 79 24 73 34 -6 8 -43 3 -93 -13 -19
-6 -23 -4 -23 13 0 14 8 23 28 27 15 3 41 10 57 14 42 11 45 11 46 0z m1695
-45 c9 -23 21 -35 34 -35 11 0 20 5 20 10 0 6 -9 10 -20 10 -19 0 -27 20 -14
33 15 14 44 -15 44 -43 0 -42 -27 -54 -80 -35 -23 8 -46 13 -50 10 -15 -9 -22
15 -10 30 7 8 10 21 7 29 -7 19 1 26 30 26 18 0 28 -9 39 -35z m-1596 -73 c0
-7 -3 -11 -7 -9 -5 3 -19 1 -32 -4 -19 -8 -21 -12 -11 -24 18 -22 -10 -60 -55
-75 -30 -10 -40 -9 -61 5 -18 11 -24 23 -21 36 3 10 1 19 -4 19 -5 0 -9 4 -9
8 0 5 35 21 78 36 42 14 84 31 92 36 15 9 30 -4 30 -28z m1524 -1 c4 -5 29
-15 56 -22 47 -12 63 -30 40 -44 -5 -3 -10 -15 -10 -26 0 -29 -25 -34 -73 -15
-59 23 -69 30 -61 49 5 15 9 15 35 2 56 -30 79 -36 79 -21 0 7 -21 21 -47 31
-58 22 -55 19 -47 39 7 18 20 21 28 7z m-1074 -48 c0 -13 -3 -14 -12 -5 -15
15 -28 15 -28 1 0 -5 5 -7 10 -4 6 3 10 -3 10 -15 0 -12 -4 -18 -10 -15 -5 3
-10 1 -10 -4 0 -14 17 -14 25 -1 3 5 12 7 19 4 9 -3 13 1 13 13 -1 12 6 19 21
21 19 3 22 -1 22 -26 l0 -30 -68 -1 -67 0 0 39 c0 40 0 40 37 40 29 0 38 -4
38 -17z m190 -24 c0 -39 -1 -40 -32 -37 -25 2 -34 8 -36 26 -2 12 -8 22 -14
22 -6 0 -8 -10 -4 -26 6 -21 4 -25 -11 -22 -12 2 -18 12 -18 33 0 24 4 29 20
27 36 -6 60 -3 63 8 2 5 10 10 18 10 10 0 14 -12 14 -41z m155 30 c4 -5 -1
-20 -12 -31 -16 -20 -17 -21 0 -15 11 4 17 1 17 -8 0 -11 -11 -15 -37 -15
l-36 0 21 23 c27 29 28 37 1 37 -11 0 -17 5 -14 10 8 13 52 13 60 -1z m73 -1
c9 -9 15 -9 24 0 17 17 45 15 57 -5 9 -17 10 -17 16 0 7 18 55 24 55 7 0 -5
-5 -10 -11 -10 -6 0 -3 -7 6 -16 12 -12 13 -19 4 -30 -14 -17 -59 -19 -59 -3
0 6 9 9 20 6 24 -6 27 8 4 17 -25 10 -32 7 -39 -14 -7 -22 -34 -27 -52 -9 -8
8 -16 7 -30 -2 -29 -18 -53 -5 -53 29 0 16 3 32 7 35 10 11 38 8 51 -5z m-188
-18 c0 -5 -4 -10 -10 -10 -5 0 -10 5 -10 10 0 6 5 10 10 10 6 0 10 -4 10 -10z
m754 -25 c3 -8 12 -15 19 -15 8 0 20 -7 27 -15 7 -8 23 -15 36 -15 22 0 54
-33 54 -55 -1 -5 -11 -23 -24 -38 l-23 -29 -28 26 c-23 22 -27 31 -22 61 7 42
-1 44 -32 9 -20 -23 -24 -24 -44 -11 -30 19 -33 51 -8 76 25 25 37 26 45 6z
m-1449 -22 c3 -10 2 -19 -2 -20 -5 -2 -32 -19 -60 -37 -41 -27 -53 -31 -57
-19 -10 25 -7 29 44 53 28 13 50 27 50 32 0 15 18 8 25 -9z m700 7 c-3 -5 -10
-10 -16 -10 -5 0 -9 5 -9 10 0 6 7 10 16 10 8 0 12 -4 9 -10z m-657 -80 c28
-38 28 -40 -9 -78 -34 -35 -85 -44 -95 -17 -8 21 -32 19 -46 -4 -12 -19 -12
-19 -26 0 -8 11 -11 23 -8 26 9 9 150 101 157 102 3 1 15 -12 27 -29z m1411
-39 c31 -21 62 -40 69 -42 10 -3 8 -9 -6 -24 -10 -11 -21 -28 -25 -37 -17 -45
-117 11 -117 66 0 14 5 26 10 26 21 0 9 19 -20 31 -27 12 -28 15 -13 31 14 15
17 15 30 2 8 -8 41 -32 72 -53z m-159 53 c0 -14 -122 -125 -172 -157 -296
-190 -681 -141 -917 115 l-44 48 567 0 c311 0 566 -3 566 -6z m-1434 -15 c10
-17 -23 -46 -38 -31 -8 8 -8 15 2 27 15 18 26 19 36 4z m248 -91 c-3 -4 2 -8
10 -8 21 0 21 -43 1 -74 -9 -13 -30 -30 -47 -37 -28 -11 -33 -11 -49 9 l-17
22 -20 -25 c-17 -21 -21 -23 -32 -10 -17 20 -13 26 58 85 34 28 62 56 62 61 0
5 9 4 19 -3 11 -7 17 -16 15 -20z m1258 -35 c2 -5 20 -22 40 -40 32 -27 35
-33 22 -44 -12 -10 -21 -6 -52 24 -21 21 -41 37 -45 37 -19 0 -3 -31 29 -60
32 -28 35 -34 22 -46 -13 -13 -20 -8 -61 35 l-46 51 22 25 c21 23 61 34 69 18z
m-1184 -35 c7 -10 -2 -27 -33 -65 -35 -43 -45 -50 -55 -38 -9 11 -3 24 27 64
41 54 46 57 61 39z m1133 -104 c25 -26 28 -32 15 -37 -9 -4 -19 -5 -22 -4 -3
1 -10 -6 -15 -15 -6 -10 -17 -18 -24 -18 -20 0 -19 26 0 34 13 5 14 10 4 28
-6 13 -21 33 -32 46 -20 22 -20 22 -2 36 17 12 20 11 33 -13 7 -14 27 -40 43
-57z m-1051 42 c28 -23 28 -23 10 -51 l-19 -28 -3 39 c-2 31 -7 39 -23 39 -21
0 -23 -18 -9 -97 5 -29 2 -40 -15 -57 -27 -27 -45 -27 -73 2 -13 12 -26 21
-30 19 -14 -4 -9 9 13 36 l22 27 -5 -27 c-7 -35 13 -64 37 -55 13 6 16 14 10
35 -20 78 -18 98 10 121 35 27 41 26 75 -3z m948 -34 c2 -14 -2 -22 -12 -22
-19 0 -29 17 -22 36 8 22 30 12 34 -14z m-1131 -46 c-9 -23 -37 -20 -37 3 0
21 20 33 34 20 5 -4 6 -15 3 -23z m711 -106 c48 0 55 -13 23 -44 -26 -25 -28
-32 -20 -59 16 -55 12 -59 -30 -33 -38 24 -38 24 -67 5 -42 -27 -46 -24 -39
25 7 41 5 45 -24 67 -28 21 -30 24 -14 31 10 3 30 7 44 7 22 1 30 9 44 44 l18
42 19 -42 c15 -35 24 -43 46 -43z"/>
<path d="M1140 2035 c0 -30 4 -55 9 -55 12 0 26 84 16 99 -15 25 -25 7 -25
-44z"/>
<path d="M1255 2037 c-4 -25 -5 -53 -3 -63 4 -18 5 -18 15 2 17 29 20 96 6
101 -7 3 -14 -13 -18 -40z"/>
<path d="M1557 2043 c-4 -3 -7 -15 -7 -25 0 -26 24 -17 28 10 3 21 -8 29 -21
15z"/>
<path d="M1481 1958 c-9 -24 2 -58 19 -58 6 0 10 18 10 40 0 44 -16 53 -29 18z"/>
<path d="M590 1858 c0 -9 5 -20 11 -23 17 -11 20 0 4 21 -13 17 -14 17 -15 2z"/>
<path d="M756 1713 c-20 -40 -20 -43 2 -43 10 0 23 -5 30 -12 20 -20 21 -5 2
42 l-17 44 -17 -31z"/>
<path d="M1010 1695 c0 -25 5 -45 10 -45 6 0 10 20 10 45 0 25 -4 45 -10 45
-5 0 -10 -20 -10 -45z"/>
<path d="M1189 1728 c-4 -64 -3 -78 6 -78 6 0 10 20 10 45 0 25 -3 45 -7 45
-5 0 -8 -6 -9 -12z"/>
<path d="M1397 1720 c-8 -39 -7 -70 2 -70 12 0 20 62 11 80 -7 11 -10 9 -13
-10z"/>
<path d="M830 1680 c0 -16 5 -30 10 -30 6 0 10 11 10 25 0 14 5 25 10 25 6 0
8 -11 4 -25 -4 -15 -2 -25 5 -25 6 0 11 14 11 30 0 25 -4 30 -25 30 -21 0 -25
-5 -25 -30z"/>
<path d="M958 1688 c-25 -25 -22 -38 7 -38 17 0 25 5 25 18 0 31 -14 39 -32
20z m12 -18 c0 -5 -5 -10 -11 -10 -5 0 -7 5 -4 10 3 6 8 10 11 10 2 0 4 -4 4
-10z"/>
<path d="M1045 1680 c0 -16 5 -28 10 -27 6 2 10 14 10 27 0 13 -4 25 -10 27
-5 2 -10 -10 -10 -27z"/>
<path d="M1085 1698 c-4 -10 -4 -26 0 -35 8 -17 8 -17 12 0 3 9 3 25 0 35 -4
16 -4 16 -12 0z"/>
<path d="M1115 1680 c0 -30 10 -40 18 -17 5 15 -3 47 -12 47 -3 0 -6 -13 -6
-30z"/>
<path d="M1150 1680 c0 -16 4 -30 8 -30 5 0 9 14 10 30 0 17 -4 30 -9 30 -5 0
-9 -13 -9 -30z"/>
<path d="M1225 1690 c-8 -26 1 -40 28 -40 20 0 20 0 1 15 -17 13 -17 14 -1 15
24 0 22 30 -2 30 -11 0 -22 -9 -26 -20z"/>
<path d="M1325 1698 c-4 -10 -4 -26 0 -35 8 -17 8 -17 12 0 3 9 3 25 0 35 -4
16 -4 16 -12 0z"/>
<path d="M1352 1680 c-1 -16 2 -30 8 -30 5 0 10 14 10 30 0 17 -4 30 -8 30 -4
0 -9 -13 -10 -30z"/>
<path d="M1040 1570 c0 -27 5 -50 10 -50 6 0 10 23 10 50 0 28 -4 50 -10 50
-5 0 -10 -22 -10 -50z"/>
<path d="M1080 1569 c0 -31 4 -48 10 -44 6 3 10 26 10 51 0 24 -4 44 -10 44
-5 0 -10 -23 -10 -51z"/>
<path d="M798 1584 c-12 -11 -10 -52 3 -60 6 -3 16 -1 22 5 8 8 8 11 0 11 -7
0 -13 12 -15 26 -2 14 -6 22 -10 18z"/>
<path d="M820 1576 c0 -9 5 -16 10 -16 6 0 10 4 10 9 0 6 -4 13 -10 16 -5 3
-10 -1 -10 -9z"/>
<path d="M860 1569 c9 -15 8 -24 -2 -37 -12 -15 -11 -16 5 -3 11 9 17 10 17 2
0 -6 4 -11 8 -11 5 0 8 15 8 33 -1 27 -5 33 -24 35 -20 2 -21 -1 -12 -19z"/>
<path d="M927 1583 c-12 -12 -7 -51 7 -56 21 -8 27 3 10 20 -8 9 -13 22 -10
29 6 15 3 18 -7 7z"/>
<path d="M950 1580 c0 -5 5 -10 11 -10 5 0 7 5 4 10 -3 6 -8 10 -11 10 -2 0
-4 -4 -4 -10z"/>
<path d="M988 1584 c-12 -11 -10 -52 3 -60 6 -3 16 -1 22 5 8 8 8 11 0 11 -7
0 -13 12 -15 26 -2 14 -6 22 -10 18z"/>
<path d="M1010 1575 c0 -8 4 -15 10 -15 5 0 7 7 4 15 -4 8 -8 15 -10 15 -2 0
-4 -7 -4 -15z"/>
<path d="M1116 1574 c-11 -30 23 -69 39 -44 3 6 -1 10 -9 10 -9 0 -16 9 -16
20 0 22 15 27 23 8 3 -8 6 -6 6 5 1 22 -35 23 -43 1z"/>
<path d="M1180 1555 c0 -44 20 -46 21 -2 2 27 2 28 6 7 8 -43 23 -47 23 -7 0
33 -3 37 -25 37 -22 0 -25 -4 -25 -35z"/>
<path d="M1258 1584 c-23 -23 5 -71 32 -54 13 8 12 10 -2 10 -10 0 -18 10 -20
26 -2 14 -6 22 -10 18z"/>
<path d="M1280 1580 c0 -5 5 -10 10 -10 6 0 10 5 10 10 0 6 -4 10 -10 10 -5 0
-10 -4 -10 -10z"/>
<path d="M1317 1584 c-12 -12 -8 -41 7 -53 10 -8 16 -9 21 -1 3 5 1 10 -4 10
-6 0 -11 9 -11 20 0 11 5 20 11 20 5 0 7 -4 4 -10 -3 -5 -1 -10 5 -10 16 0 6
24 -11 28 -8 1 -18 0 -22 -4z"/>
<path d="M1808 1709 c-39 -32 -48 -49 -25 -49 19 0 88 60 82 71 -9 14 -17 11
-57 -22z"/>
<path d="M346 1701 c-7 -11 62 -71 81 -71 22 0 14 17 -19 42 -48 36 -56 39
-62 29z"/>
<path d="M286 1577 c5 -14 66 -47 84 -47 21 0 8 19 -26 39 -40 24 -66 27 -58
8z"/>
<path d="M1960 1505 c0 -17 2 -18 24 -9 23 9 20 24 -4 24 -11 0 -20 -7 -20
-15z"/>
<path d="M205 1420 c-3 -5 4 -14 15 -20 16 -8 20 -8 20 4 0 16 -27 29 -35 16z"/>
<path d="M1981 1409 c-18 -7 -21 -13 -13 -21 12 -12 72 7 72 23 0 11 -28 10
-59 -2z"/>
<path d="M1866 1382 c-9 -15 12 -54 25 -47 12 8 11 18 -4 40 -10 12 -16 14
-21 7z"/>
<path d="M2020 1285 c0 -17 2 -18 24 -9 23 9 20 24 -4 24 -11 0 -20 -7 -20
-15z"/>
<path d="M1088 1243 c7 -3 16 -2 19 1 4 3 -2 6 -13 5 -11 0 -14 -3 -6 -6z"/>
<path d="M2050 1035 c0 -19 36 -38 60 -30 11 4 20 15 20 26 0 16 -7 19 -40 19
-28 0 -40 -4 -40 -15z"/>
<path d="M178 1033 c-27 -7 -21 -23 7 -23 14 0 25 4 25 9 0 13 -12 18 -32 14z"/>
<path d="M1950 911 c0 -5 7 -12 16 -15 24 -9 28 -7 14 9 -14 17 -30 20 -30 6z"/>
<path d="M268 793 c-34 -14 -53 -43 -28 -43 24 0 90 34 90 46 0 18 -15 17 -62
-3z"/>
<path d="M996 772 c-2 -4 -1 -14 5 -22 7 -12 9 -10 9 8 0 23 -5 28 -14 14z"/>
<path d="M1242 770 c0 -19 2 -27 5 -17 2 9 2 25 0 35 -3 9 -5 1 -5 -18z"/>
<path d="M1312 770 c0 -19 2 -27 5 -17 2 9 2 25 0 35 -3 9 -5 1 -5 -18z"/>
<path d="M1802 738 c-14 -14 -16 -38 -2 -38 13 0 32 38 22 44 -5 3 -14 0 -20
-6z"/>
<path d="M1899 660 c22 -19 51 -27 51 -14 0 12 -35 33 -55 33 -19 0 -19 -1 4
-19z"/>
<path d="M367 624 c-37 -25 -45 -38 -29 -48 10 -6 82 43 82 55 0 19 -19 16
-53 -7z"/>
<path d="M1780 591 c0 -12 63 -61 78 -61 22 0 12 26 -18 48 -30 23 -60 29 -60
13z"/>
<path d="M720 625 c0 -25 5 -45 10 -45 6 0 10 20 10 45 0 25 -4 45 -10 45 -5
0 -10 -20 -10 -45z"/>
<path d="M761 649 c8 -16 8 -28 0 -45 -8 -19 -7 -22 4 -17 20 7 20 69 0 77
-13 5 -14 2 -4 -15z"/>
<path d="M940 630 c0 -23 -5 -40 -11 -40 -7 0 -9 11 -6 26 3 16 1 22 -5 16
-16 -16 -4 -47 20 -50 20 -3 22 1 22 42 0 25 -4 46 -10 46 -5 0 -10 -18 -10
-40z"/>
<path d="M1480 630 c0 -22 -4 -40 -10 -40 -5 0 -10 12 -10 28 -1 22 -2 24 -10
10 -15 -24 -1 -48 26 -48 22 0 24 4 24 45 0 25 -4 45 -10 45 -5 0 -10 -18 -10
-40z"/>
<path d="M1170 621 c0 -17 5 -33 10 -36 6 -4 10 8 10 29 0 20 -4 36 -10 36 -5
0 -10 -13 -10 -29z"/>
<path d="M804 626 c-8 -20 2 -46 16 -46 6 0 6 7 -2 20 -14 22 -2 41 13 20 9
-13 10 -13 7 -1 -6 21 -27 25 -34 7z"/>
<path d="M856 628 c-11 -24 0 -48 21 -48 12 0 14 3 7 8 -7 4 -14 18 -16 32 -4
21 -6 22 -12 8z"/>
<path d="M880 624 c0 -8 5 -12 10 -9 6 4 8 11 5 16 -9 14 -15 11 -15 -7z"/>
<path d="M1040 611 c0 -38 17 -41 23 -3 l4 27 2 -27 c0 -16 6 -28 12 -28 6 0
9 12 7 28 -2 19 -9 28 -25 30 -20 3 -23 -1 -23 -27z"/>
<path d="M1110 625 c-9 -11 -10 -19 -3 -26 7 -7 12 -2 15 15 6 30 5 31 -12 11z"/>
<path d="M1138 611 c-2 -17 -1 -31 4 -31 14 0 20 28 10 46 -8 14 -10 11 -14
-15z"/>
<path d="M1246 618 c8 -27 12 -33 19 -27 7 8 -7 49 -17 49 -5 0 -6 -10 -2 -22z"/>
<path d="M1270 633 c1 -5 7 -19 15 -33 10 -18 14 -20 15 -8 0 23 -11 48 -21
48 -5 0 -9 -3 -9 -7z"/>
<path d="M1337 633 c-9 -9 -9 -41 1 -46 4 -3 7 8 7 24 0 16 0 29 -1 29 0 0 -4
-3 -7 -7z"/>
<path d="M1363 610 c0 -16 4 -27 9 -24 4 3 8 14 8 24 0 10 -4 21 -8 24 -5 3
-9 -8 -9 -24z"/>
<path d="M1401 605 c1 -20 3 -24 6 -10 3 11 12 25 20 32 13 10 12 12 -6 10
-17 -1 -21 -7 -20 -32z"/>
<path d="M980 590 c0 -5 5 -10 11 -10 5 0 7 5 4 10 -3 6 -8 10 -11 10 -2 0 -4
-4 -4 -10z"/>
<path d="M856 508 c-3 -13 -1 -27 4 -32 7 -7 10 1 10 22 0 37 -5 41 -14 10z"/>
<path d="M966 522 c-3 -5 3 -17 14 -27 23 -21 26 -9 6 18 -8 10 -17 14 -20 9z"/>
<path d="M1021 503 c-1 -27 3 -33 19 -33 16 0 20 6 19 33 -2 30 -2 30 -6 5 -2
-16 -8 -28 -13 -28 -5 0 -11 12 -13 28 -4 25 -4 25 -6 -5z"/>
<path d="M1084 515 c-9 -22 3 -45 21 -45 15 0 15 2 1 15 -8 9 -13 22 -10 30 4
8 3 15 0 15 -4 0 -9 -7 -12 -15z"/>
<path d="M1137 516 c-8 -19 7 -46 25 -46 7 0 7 4 0 13 -5 6 -12 21 -14 32 -3
19 -4 19 -11 1z"/>
<path d="M1165 520 c3 -5 8 -10 11 -10 2 0 4 5 4 10 0 6 -5 10 -11 10 -5 0 -7
-4 -4 -10z"/>
<path d="M1194 515 c-9 -22 3 -45 23 -45 13 0 15 2 5 9 -7 4 -14 18 -15 29 -2
26 -5 28 -13 7z"/>
<path d="M1221 514 c0 -11 3 -14 6 -6 3 7 2 16 -1 19 -3 4 -6 -2 -5 -13z"/>
<path d="M1290 517 c0 -9 9 -21 20 -27 11 -6 20 -7 20 -2 0 5 -9 17 -20 27
-18 16 -20 16 -20 2z"/>
<path d="M897 496 c10 -13 20 -20 21 -15 5 12 -17 39 -30 39 -5 0 -1 -11 9
-24z"/>
<path d="M1255 500 c10 -11 20 -18 23 -15 7 6 -18 35 -31 35 -5 0 -2 -9 8 -20z"/>
<path d="M1340 480 c0 -5 5 -10 10 -10 6 0 10 5 10 10 0 6 -4 10 -10 10 -5 0
-10 -4 -10 -10z"/>
<path d="M442 517 c-35 -36 -39 -47 -19 -47 17 0 79 64 71 73 -12 12 -19 8
-52 -26z"/>
</g>
</svg>
